<svg width="24" height="24" viewBox="0 0 24 24" fill="none" xmlns="http://www.w3.org/2000/svg">
<g filter="url(#filter0_d_1024_414)">
<rect x="2" y="2" width="18" height="18" rx="2" fill="white"/>
</g>
<path d="M9.79993 14.6001L15.8428 8.5572L14.6428 7.3572L9.79993 12.2001L7.35707 9.7572L6.15707 10.9572L9.79993 14.6001ZM4.99993 18.7143C4.5285 18.7143 4.12479 18.5463 3.78879 18.2103C3.45279 17.8743 3.28507 17.4709 3.28565 17.0001V5.00005C3.28565 4.52862 3.45365 4.12491 3.78965 3.78891C4.12565 3.45291 4.52907 3.2852 4.99993 3.28577H16.9999C17.4714 3.28577 17.8751 3.45377 18.2111 3.78977C18.5471 4.12577 18.7148 4.5292 18.7142 5.00005V17.0001C18.7142 17.4715 18.5462 17.8752 18.2102 18.2112C17.8742 18.5472 17.4708 18.7149 16.9999 18.7143H4.99993Z" fill="#13D154"/>
<defs>
<filter id="filter0_d_1024_414" x="0" y="0" width="24" height="24" filterUnits="userSpaceOnUse" color-interpolation-filters="sRGB">
<feFlood flood-opacity="0" result="BackgroundImageFix"/>
<feColorMatrix in="SourceAlpha" type="matrix" values="0 0 0 0 0 0 0 0 0 0 0 0 0 0 0 0 0 0 127 0" result="hardAlpha"/>
<feOffset dx="1" dy="1"/>
<feGaussianBlur stdDeviation="1.5"/>
<feComposite in2="hardAlpha" operator="out"/>
<feColorMatrix type="matrix" values="0 0 0 0 0 0 0 0 0 0 0 0 0 0 0 0 0 0 0.25 0"/>
<feBlend mode="normal" in2="BackgroundImageFix" result="effect1_dropShadow_1024_414"/>
<feBlend mode="normal" in="SourceGraphic" in2="effect1_dropShadow_1024_414" result="shape"/>
</filter>
</defs>
</svg>
